<svg xmlns="http://www.w3.org/2000/svg" viewBox="0 0 750 500"><g id="freepik--background-simple--inject-12"><path d="M626.81,41l-1.41.86A37,37,0,0,0,607.34,75.6a35.72,35.72,0,0,0,.71,5.23,38.9,38.9,0,0,0,24.09,27.71c7.08,2.64,15.22,3.37,20.84,8.37,7.31,6.51,7.54,17.56,7.24,27.28s-.05,20.77,7.29,27.24c4.6,4.06,11.13,5.35,17.29,5,16.29-.87,30.86-12.22,38.11-26.66s7.89-31.45,4.7-47.25C723.15,80.4,710.89,59.34,692,46.69S647.24,30.83,626.81,41Z" style="fill:#f5f5f5"></path><circle cx="77.15" cy="73.36" r="38.4" style="fill:#f5f5f5"></circle></g><g id="freepik--device-1--inject-12"><path d="M575.48,63H154.08a13.16,13.16,0,0,0-13.15,13.16V373.81A13.16,13.16,0,0,0,154.08,387H315.81l-8.18,79.1,117.8-.74L418.69,387H575.48a13.16,13.16,0,0,0,13.16-13.16V76.17A13.16,13.16,0,0,0,575.48,63Z" style="fill:#455a64"></path><path d="M370.41,355.66c5.73,8.2-3.24,17.17-11.44,11.44a3,3,0,0,1-.7-.71c-5.72-8.19,3.24-17.15,11.43-11.43A3,3,0,0,1,370.41,355.66Z" style="fill:#263238"></path><path d="M157.88,68.47h413.8a9.7,9.7,0,0,1,9.7,9.7V332.51a0,0,0,0,1,0,0H148.18a0,0,0,0,1,0,0V78.16A9.7,9.7,0,0,1,157.88,68.47Z" style="fill:#fff"></path><path d="M157.34,68.47H573.86A7.52,7.52,0,0,1,581.38,76V90.41a0,0,0,0,1,0,0H148.18a0,0,0,0,1,0,0V77.62A9.15,9.15,0,0,1,157.34,68.47Z" style="fill:#f5f5f5"></path><path d="M165,79.9a3,3,0,1,1-3-3.05A3,3,0,0,1,165,79.9Z" style="fill:#e0e0e0"></path><path d="M174.09,79.9a3,3,0,1,1-3-3.05A3,3,0,0,1,174.09,79.9Z" style="fill:#e0e0e0"></path><path d="M182.72,79.9a3,3,0,1,1-3-3.05A3,3,0,0,1,182.72,79.9Z" style="fill:#e0e0e0"></path><path d="M462.17,387c0,.15-35.33.26-78.9.26s-78.9-.11-78.9-.26,35.32-.26,78.9-.26S462.17,386.83,462.17,387Z" style="fill:#263238"></path><rect x="148.18" y="90.41" width="71.2" height="242.11" style="fill:#ebebeb"></rect><path d="M179.47,95.58a5,5,0,0,1,1.19-.51l.24-1.18,2,0,.28,1.16a5,5,0,0,1,1.21.48l1-.66,1.42,1.38-.62,1a4.83,4.83,0,0,1,.52,1.19l1.17.24,0,2-1.17.29a4.9,4.9,0,0,1-.47,1.2l.66,1-1.38,1.43-1-.62a4.39,4.39,0,0,1-1.18.51l-.25,1.18-2,0-.28-1.16a4.63,4.63,0,0,1-1.21-.48l-1,.66-1.43-1.38.63-1a4.68,4.68,0,0,1-.52-1.19l-1.17-.24,0-2,1.17-.29a4.9,4.9,0,0,1,.47-1.2l-.66-1L178.45,95l1,.62Zm1.06,2.64a2.13,2.13,0,1,0,3,0A2.14,2.14,0,0,0,180.53,98.22Z" style="fill:#e0e0e0"></path><path d="M195.92,151.14h-31A3.19,3.19,0,0,1,161.7,148h0a3.19,3.19,0,0,1,3.19-3.19h31a3.19,3.19,0,0,1,3.19,3.19h0A3.19,3.19,0,0,1,195.92,151.14Z" style="fill:#e0e0e0"></path><path d="M195.92,134.89h-31a3.19,3.19,0,0,1-3.19-3.19h0a3.19,3.19,0,0,1,3.19-3.19h31a3.19,3.19,0,0,1,3.19,3.19h0A3.19,3.19,0,0,1,195.92,134.89Z" style="fill:#e0e0e0"></path><path d="M195.92,120h-31a3.19,3.19,0,0,1-3.19-3.19h0a3.19,3.19,0,0,1,3.19-3.19h31a3.19,3.19,0,0,1,3.19,3.19h0A3.19,3.19,0,0,1,195.92,120Z" style="fill:#e0e0e0"></path><path d="M279.32,118.19h-29.4a3.19,3.19,0,0,1-3.19-3.19h0a3.19,3.19,0,0,1,3.19-3.19h29.4a3.19,3.19,0,0,1,3.19,3.19h0A3.19,3.19,0,0,1,279.32,118.19Z" style="fill:#263238"></path><path d="M279.32,134.89h-29.4a3.19,3.19,0,0,1-3.19-3.19h0a3.19,3.19,0,0,1,3.19-3.19h29.4a3.19,3.19,0,0,1,3.19,3.19h0A3.19,3.19,0,0,1,279.32,134.89Z" style="fill:#e0e0e0"></path><path d="M279.32,152.14h-29.4a3.19,3.19,0,0,1-3.19-3.19h0a3.19,3.19,0,0,1,3.19-3.19h29.4a3.19,3.19,0,0,1,3.19,3.19h0A3.19,3.19,0,0,1,279.32,152.14Z" style="fill:#FF7900"></path><path d="M266.78,185.5H249.92a3.19,3.19,0,0,1-3.19-3.19h0a3.19,3.19,0,0,1,3.19-3.19h16.86a3.19,3.19,0,0,1,3.19,3.19h0A3.19,3.19,0,0,1,266.78,185.5Z" style="fill:#263238"></path><path d="M266.78,202.8H249.92a3.19,3.19,0,0,1-3.19-3.19h0a3.19,3.19,0,0,1,3.19-3.19h16.86a3.19,3.19,0,0,1,3.19,3.19h0A3.19,3.19,0,0,1,266.78,202.8Z" style="fill:#263238"></path><path d="M316.88,202.8H286a3.19,3.19,0,0,1-3.19-3.19h0a3.19,3.19,0,0,1,3.19-3.19h30.91a3.19,3.19,0,0,1,3.19,3.19h0A3.19,3.19,0,0,1,316.88,202.8Z" style="fill:#e0e0e0"></path><path d="M299.4,218.17H268.48a3.19,3.19,0,0,1-3.19-3.19h0a3.19,3.19,0,0,1,3.19-3.19H299.4a3.19,3.19,0,0,1,3.19,3.19h0A3.19,3.19,0,0,1,299.4,218.17Z" style="fill:#FF7900"></path><rect x="282.83" y="229.33" width="25.59" height="6.38" rx="3.11" style="fill:#FF7900"></rect><path d="M305.23,270.09H286a3.19,3.19,0,0,1-3.19-3.19h0a3.19,3.19,0,0,1,3.19-3.19h19.21a3.19,3.19,0,0,1,3.19,3.19h0A3.19,3.19,0,0,1,305.23,270.09Z" style="fill:#FF7900"></path><path d="M305.23,306.4H286a3.19,3.19,0,0,1-3.19-3.19h0A3.19,3.19,0,0,1,286,300h19.21a3.19,3.19,0,0,1,3.19,3.19h0A3.19,3.19,0,0,1,305.23,306.4Z" style="fill:#FF7900"></path><path d="M352.45,306.4H318.78a3.19,3.19,0,0,1-3.19-3.19h0a3.19,3.19,0,0,1,3.19-3.19h33.67a3.19,3.19,0,0,1,3.19,3.19h0A3.19,3.19,0,0,1,352.45,306.4Z" style="fill:#455a64"></path><path d="M376,306.4h-4.85a3.19,3.19,0,0,1-3.19-3.19h0a3.19,3.19,0,0,1,3.19-3.19H376a3.19,3.19,0,0,1,3.19,3.19h0A3.19,3.19,0,0,1,376,306.4Z" style="fill:#e0e0e0"></path><path d="M350.43,270.09H322a3.19,3.19,0,0,1-3.19-3.19h0a3.19,3.19,0,0,1,3.19-3.19h28.45a3.19,3.19,0,0,1,3.19,3.19h0A3.19,3.19,0,0,1,350.43,270.09Z" style="fill:#e0e0e0"></path><path d="M412.84,286H322a3.19,3.19,0,0,1-3.19-3.19h0a3.19,3.19,0,0,1,3.19-3.19h90.86a3.19,3.19,0,0,1,3.19,3.19h0A3.19,3.19,0,0,1,412.84,286Z" style="fill:#e0e0e0"></path><path d="M423.33,270.09h-58a3.19,3.19,0,0,1-3.19-3.19h0a3.19,3.19,0,0,1,3.19-3.19h58a3.19,3.19,0,0,1,3.19,3.19h0A3.19,3.19,0,0,1,423.33,270.09Z" style="fill:#455a64"></path><rect x="316.78" y="229.33" width="30.41" height="6.38" rx="3.11" style="fill:#455a64"></rect><rect x="355.64" y="229.33" width="12.35" height="6.38" rx="3.11" style="fill:#e0e0e0"></rect><rect x="377.39" y="229.33" width="36.43" height="6.38" rx="3.11" style="fill:#e0e0e0"></rect><path d="M320.34,218.17h-6.89a3.19,3.19,0,0,1-3.19-3.19h0a3.19,3.19,0,0,1,3.19-3.19h6.89a3.18,3.18,0,0,1,3.18,3.19h0A3.18,3.18,0,0,1,320.34,218.17Z" style="fill:#263238"></path><path d="M378.69,218.17H334.83a3.19,3.19,0,0,1-3.19-3.19h0a3.19,3.19,0,0,1,3.19-3.19h43.86a3.19,3.19,0,0,1,3.19,3.19h0A3.19,3.19,0,0,1,378.69,218.17Z" style="fill:#e0e0e0"></path><path d="M326.42,118.19H297a3.19,3.19,0,0,1-3.19-3.19h0a3.19,3.19,0,0,1,3.19-3.19h29.4a3.19,3.19,0,0,1,3.19,3.19h0A3.19,3.19,0,0,1,326.42,118.19Z" style="fill:#455a64"></path><path d="M364.3,134.89H297a3.19,3.19,0,0,1-3.19-3.19h0a3.19,3.19,0,0,1,3.19-3.19H364.3a3.19,3.19,0,0,1,3.19,3.19h0A3.19,3.19,0,0,1,364.3,134.89Z" style="fill:#263238"></path><path d="M436.74,152.14H297a3.19,3.19,0,0,1-3.19-3.19h0a3.19,3.19,0,0,1,3.19-3.19H436.74a3.19,3.19,0,0,1,3.19,3.19h0A3.19,3.19,0,0,1,436.74,152.14Z" style="fill:#e0e0e0"></path><path d="M362.9,164.3H297a3.19,3.19,0,0,1-3.19-3.19h0a3.19,3.19,0,0,1,3.19-3.19H362.9a3.19,3.19,0,0,1,3.19,3.19h0A3.19,3.19,0,0,1,362.9,164.3Z" style="fill:#e0e0e0"></path><path d="M349.42,185.5H283.54a3.19,3.19,0,0,1-3.19-3.19h0a3.19,3.19,0,0,1,3.19-3.19h65.88a3.19,3.19,0,0,1,3.19,3.19h0A3.19,3.19,0,0,1,349.42,185.5Z" style="fill:#455a64"></path><path d="M386.3,185.5H364.22a3.19,3.19,0,0,1-3.19-3.19h0a3.19,3.19,0,0,1,3.19-3.19H386.3a3.19,3.19,0,0,1,3.19,3.19h0A3.19,3.19,0,0,1,386.3,185.5Z" style="fill:#FF7900"></path><path d="M442.76,185.4H401.05a3.19,3.19,0,0,1-3.19-3.19h0a3.19,3.19,0,0,1,3.19-3.19h41.71a3.19,3.19,0,0,1,3.19,3.19h0A3.19,3.19,0,0,1,442.76,185.4Z" style="fill:#263238"></path><path d="M499.52,185.4H457.81a3.19,3.19,0,0,1-3.19-3.19h0a3.19,3.19,0,0,1,3.19-3.19h41.71a3.19,3.19,0,0,1,3.19,3.19h0A3.19,3.19,0,0,1,499.52,185.4Z" style="fill:#e0e0e0"></path><path d="M182.48,168.34H164.89a3.19,3.19,0,0,1-3.19-3.19h0a3.19,3.19,0,0,1,3.19-3.19h17.59a3.19,3.19,0,0,1,3.19,3.19h0A3.19,3.19,0,0,1,182.48,168.34Z" style="fill:#e0e0e0"></path><path d="M177.21,220H164.89a3.19,3.19,0,0,1-3.19-3.19h0a3.18,3.18,0,0,1,3.19-3.19h12.32a3.18,3.18,0,0,1,3.19,3.19h0A3.19,3.19,0,0,1,177.21,220Z" style="fill:#e0e0e0"></path><path d="M199.11,185.54H164.89a3.19,3.19,0,0,1-3.19-3.19h0a3.19,3.19,0,0,1,3.19-3.19h34.22a3.19,3.19,0,0,1,3.19,3.19h0A3.19,3.19,0,0,1,199.11,185.54Z" style="fill:#e0e0e0"></path><path d="M193.11,202.74H164.89a3.18,3.18,0,0,1-3.19-3.19h0a3.19,3.19,0,0,1,3.19-3.19h28.22a3.19,3.19,0,0,1,3.19,3.19h0A3.19,3.19,0,0,1,193.11,202.74Z" style="fill:#e0e0e0"></path><path d="M235.51,115a3.24,3.24,0,1,1-3.24-3.24A3.24,3.24,0,0,1,235.51,115Z" style="fill:#455a64"></path><path d="M235.51,131.65a3.24,3.24,0,1,1-3.24-3.24A3.24,3.24,0,0,1,235.51,131.65Z" style="fill:#455a64"></path><path d="M235.51,149a3.24,3.24,0,1,1-3.24-3.24A3.24,3.24,0,0,1,235.51,149Z" style="fill:#455a64"></path><path d="M235.51,166.26a3.24,3.24,0,1,1-3.24-3.24A3.24,3.24,0,0,1,235.51,166.26Z" style="fill:#455a64"></path><path d="M235.51,183.56a3.24,3.24,0,1,1-3.24-3.24A3.24,3.24,0,0,1,235.51,183.56Z" style="fill:#455a64"></path><path d="M235.51,200.87a3.24,3.24,0,1,1-3.24-3.24A3.24,3.24,0,0,1,235.51,200.87Z" style="fill:#455a64"></path><path d="M235.51,218.17a3.24,3.24,0,1,1-3.24-3.24A3.24,3.24,0,0,1,235.51,218.17Z" style="fill:#455a64"></path><path d="M235.51,235.48a3.24,3.24,0,1,1-3.24-3.24A3.24,3.24,0,0,1,235.51,235.48Z" style="fill:#455a64"></path><path d="M235.51,252.78a3.24,3.24,0,1,1-3.24-3.24A3.24,3.24,0,0,1,235.51,252.78Z" style="fill:#455a64"></path><path d="M235.51,270.09a3.24,3.24,0,1,1-3.24-3.24A3.24,3.24,0,0,1,235.51,270.09Z" style="fill:#455a64"></path><path d="M235.51,287.4a3.24,3.24,0,1,1-3.24-3.25A3.25,3.25,0,0,1,235.51,287.4Z" style="fill:#455a64"></path><path d="M235.51,304.7a3.24,3.24,0,1,1-3.24-3.24A3.24,3.24,0,0,1,235.51,304.7Z" style="fill:#455a64"></path></g><g id="freepik--device-2--inject-12"><path d="M642.67,464.41l-114.28-.07a24.79,24.79,0,0,1-24.88-24.7l.05-284.19a24.81,24.81,0,0,1,24.91-24.69l114.28.07a24.79,24.79,0,0,1,24.88,24.7l0,284.19A24.81,24.81,0,0,1,642.67,464.41Z" style="fill:#263238"></path><path d="M642.38,141l-22.16,0a5.48,5.48,0,0,0-5.38,5.58v4a5.48,5.48,0,0,1-5.38,5.57l-43.19,0a5.5,5.5,0,0,1-5.38-5.59v-4a5.5,5.5,0,0,0-5.38-5.59H528.32a17.36,17.36,0,0,0-17.44,17.29l-.06,277.39a17.37,17.37,0,0,0,17.43,17.3l114,.06a17.37,17.37,0,0,0,17.45-17.29l0-277.39A17.36,17.36,0,0,0,642.38,141Z" style="fill:#fff"></path><path d="M511,182.84h40.68a0,0,0,0,1,0,0V453.13a0,0,0,0,1,0,0H529.05A18.1,18.1,0,0,1,511,435V182.84A0,0,0,0,1,511,182.84Z" style="fill:#ebebeb"></path><path d="M594.42,201.71H575.05a2.16,2.16,0,0,1-2.11-2.21h0a2.16,2.16,0,0,1,2.11-2.21h19.37a2.16,2.16,0,0,1,2.1,2.21h0A2.16,2.16,0,0,1,594.42,201.71Z" style="fill:#263238"></path><path d="M595,213.25H575.65a2.16,2.16,0,0,1-2.1-2.21h0a2.16,2.16,0,0,1,2.1-2.21H595a2.16,2.16,0,0,1,2.1,2.21h0A2.16,2.16,0,0,1,595,213.25Z" style="fill:#e0e0e0"></path><path d="M595.26,226.45H575.88a2.16,2.16,0,0,1-2.1-2.21h0a2.16,2.16,0,0,1,2.1-2.21h19.38a2.16,2.16,0,0,1,2.1,2.21h0A2.16,2.16,0,0,1,595.26,226.45Z" style="fill:#FF7900"></path><path d="M625.54,236.46H606.16a2.16,2.16,0,0,1-2.1-2.21h0a2.16,2.16,0,0,1,2.1-2.21h19.38a2.16,2.16,0,0,1,2.1,2.21h0A2.16,2.16,0,0,1,625.54,236.46Z" style="fill:#e0e0e0"></path><path d="M590.29,249.59H579.18a2.16,2.16,0,0,1-2.1-2.22h0a2.16,2.16,0,0,1,2.1-2.21h11.11a2.16,2.16,0,0,1,2.1,2.21h0A2.16,2.16,0,0,1,590.29,249.59Z" style="fill:#263238"></path><path d="M590.29,261.58H579.18a2.16,2.16,0,0,1-2.1-2.22h0a2.16,2.16,0,0,1,2.1-2.21h11.11a2.16,2.16,0,0,1,2.1,2.21h0A2.16,2.16,0,0,1,590.29,261.58Z" style="fill:#263238"></path><path d="M623.31,261.58H602.94a2.17,2.17,0,0,1-2.11-2.22h0a2.17,2.17,0,0,1,2.11-2.21h20.37a2.16,2.16,0,0,1,2.1,2.21h0A2.16,2.16,0,0,1,623.31,261.58Z" style="fill:#e0e0e0"></path><path d="M599.53,275.71H579.16a2.17,2.17,0,0,1-2.11-2.21h0a2.17,2.17,0,0,1,2.11-2.21h20.37a2.16,2.16,0,0,1,2.1,2.21h0A2.16,2.16,0,0,1,599.53,275.71Z" style="fill:#FF7900"></path><rect x="586.2" y="281.24" width="16.86" height="4.42" rx="2.15" style="fill:#FF7900"></rect><path d="M593.4,305H580.74a2.16,2.16,0,0,1-2.1-2.21h0a2.16,2.16,0,0,1,2.1-2.21H593.4a2.16,2.16,0,0,1,2.1,2.21h0A2.16,2.16,0,0,1,593.4,305Z" style="fill:#FF7900"></path><path d="M593.4,330.22H580.74a2.16,2.16,0,0,1-2.1-2.21h0a2.16,2.16,0,0,1,2.1-2.21H593.4a2.16,2.16,0,0,1,2.1,2.21h0A2.16,2.16,0,0,1,593.4,330.22Z" style="fill:#FF7900"></path><path d="M624.52,330.22h-22.2a2.16,2.16,0,0,1-2.1-2.21h0a2.16,2.16,0,0,1,2.1-2.21h22.2a2.16,2.16,0,0,1,2.1,2.21h0A2.16,2.16,0,0,1,624.52,330.22Z" style="fill:#455a64"></path><path d="M652.66,305.52H630.47a2.16,2.16,0,0,1-2.1-2.21h0a2.16,2.16,0,0,1,2.1-2.21h22.19a2.16,2.16,0,0,1,2.11,2.21h0A2.16,2.16,0,0,1,652.66,305.52Z" style="fill:#455a64"></path><path d="M626,314.93H603.81a2.16,2.16,0,0,1-2.11-2.21h0a2.16,2.16,0,0,1,2.11-2.21H626a2.16,2.16,0,0,1,2.1,2.21h0A2.16,2.16,0,0,1,626,314.93Z" style="fill:#455a64"></path><path d="M640.05,330.22h-3.2a2.16,2.16,0,0,1-2.1-2.21h0a2.16,2.16,0,0,1,2.1-2.21h3.2a2.16,2.16,0,0,1,2.1,2.21h0A2.16,2.16,0,0,1,640.05,330.22Z" style="fill:#e0e0e0"></path><path d="M623.19,305H604.43a2.16,2.16,0,0,1-2.1-2.21h0a2.16,2.16,0,0,1,2.1-2.21h18.76a2.16,2.16,0,0,1,2.1,2.21h0A2.16,2.16,0,0,1,623.19,305Z" style="fill:#e0e0e0"></path><rect x="608.57" y="281.24" width="20.04" height="4.42" rx="2.15" style="fill:#455a64"></rect><rect x="634.19" y="281.24" width="8.14" height="4.42" rx="2.15" style="fill:#e0e0e0"></rect><path d="M613.33,275.71h-4.54a2.16,2.16,0,0,1-2.1-2.21h0a2.16,2.16,0,0,1,2.1-2.21h4.54a2.16,2.16,0,0,1,2.1,2.21h0A2.16,2.16,0,0,1,613.33,275.71Z" style="fill:#263238"></path><path d="M651.79,275.71h-28.9a2.17,2.17,0,0,1-2.11-2.21h0a2.17,2.17,0,0,1,2.11-2.21h28.9a2.16,2.16,0,0,1,2.1,2.21h0A2.16,2.16,0,0,1,651.79,275.71Z" style="fill:#e0e0e0"></path><path d="M623.58,201.71H604.2a2.16,2.16,0,0,1-2.1-2.21h0a2.16,2.16,0,0,1,2.1-2.21h19.38a2.16,2.16,0,0,1,2.1,2.21h0A2.16,2.16,0,0,1,623.58,201.71Z" style="fill:#455a64"></path><path d="M647.85,213.25H603.51a2.16,2.16,0,0,1-2.1-2.21h0a2.16,2.16,0,0,1,2.1-2.21h44.34A2.16,2.16,0,0,1,650,211h0A2.16,2.16,0,0,1,647.85,213.25Z" style="fill:#263238"></path><path d="M648.7,226.36H605.28a2.16,2.16,0,0,1-2.1-2.21h0a2.16,2.16,0,0,1,2.1-2.21H648.7a2.16,2.16,0,0,1,2.1,2.21h0A2.16,2.16,0,0,1,648.7,226.36Z" style="fill:#e0e0e0"></path><path d="M644.76,249.59H601.34a2.16,2.16,0,0,1-2.1-2.22h0a2.16,2.16,0,0,1,2.1-2.21h43.42a2.16,2.16,0,0,1,2.1,2.21h0A2.16,2.16,0,0,1,644.76,249.59Z" style="fill:#455a64"></path><path d="M590.29,417.68H579.18a2.16,2.16,0,0,1-2.1-2.21h0a2.16,2.16,0,0,1,2.1-2.21h11.11a2.16,2.16,0,0,1,2.1,2.21h0A2.16,2.16,0,0,1,590.29,417.68Z" style="fill:#263238"></path><path d="M590.29,429.67H579.18a2.16,2.16,0,0,1-2.1-2.21h0a2.16,2.16,0,0,1,2.1-2.21h11.11a2.16,2.16,0,0,1,2.1,2.21h0A2.16,2.16,0,0,1,590.29,429.67Z" style="fill:#263238"></path><path d="M644.76,417.68H601.34a2.16,2.16,0,0,1-2.1-2.21h0a2.16,2.16,0,0,1,2.1-2.21h43.42a2.16,2.16,0,0,1,2.1,2.21h0A2.16,2.16,0,0,1,644.76,417.68Z" style="fill:#455a64"></path><path d="M534.73,240.65h-11.6a2.16,2.16,0,0,1-2.1-2.21h0a2.16,2.16,0,0,1,2.1-2.21h11.6a2.16,2.16,0,0,1,2.1,2.21h0A2.16,2.16,0,0,1,534.73,240.65Z" style="fill:#e0e0e0"></path><path d="M534.73,253h-11.6a2.16,2.16,0,0,1-2.1-2.21h0a2.16,2.16,0,0,1,2.1-2.21h11.6a2.16,2.16,0,0,1,2.1,2.21h0A2.16,2.16,0,0,1,534.73,253Z" style="fill:#e0e0e0"></path><path d="M534.73,265.27h-11.6a2.16,2.16,0,0,1-2.1-2.22h0a2.16,2.16,0,0,1,2.1-2.21h11.6a2.16,2.16,0,0,1,2.1,2.21h0A2.16,2.16,0,0,1,534.73,265.27Z" style="fill:#e0e0e0"></path><path d="M534.73,228.35h-11.6a2.17,2.17,0,0,1-2.1-2.22h0a2.16,2.16,0,0,1,2.1-2.21h11.6a2.16,2.16,0,0,1,2.1,2.21h0A2.17,2.17,0,0,1,534.73,228.35Z" style="fill:#e0e0e0"></path><path d="M534.73,216h-11.6a2.16,2.16,0,0,1-2.1-2.21h0a2.17,2.17,0,0,1,2.1-2.22h11.6a2.17,2.17,0,0,1,2.1,2.22h0A2.16,2.16,0,0,1,534.73,216Z" style="fill:#e0e0e0"></path><path d="M534.73,203.73h-11.6a2.16,2.16,0,0,1-2.1-2.21h0a2.16,2.16,0,0,1,2.1-2.21h11.6a2.16,2.16,0,0,1,2.1,2.21h0A2.16,2.16,0,0,1,534.73,203.73Z" style="fill:#e0e0e0"></path><path d="M531.26,277.57h-8.13a2.16,2.16,0,0,1-2.1-2.21h0a2.16,2.16,0,0,1,2.1-2.21h8.13a2.16,2.16,0,0,1,2.1,2.21h0A2.16,2.16,0,0,1,531.26,277.57Z" style="fill:#e0e0e0"></path><path d="M563.47,199.5a2.17,2.17,0,1,1-2.17-2.25A2.2,2.2,0,0,1,563.47,199.5Z" style="fill:#455a64"></path><path d="M563.47,211a2.17,2.17,0,1,1-2.17-2.25A2.21,2.21,0,0,1,563.47,211Z" style="fill:#455a64"></path><path d="M563.47,223a2.17,2.17,0,1,1-2.17-2.25A2.21,2.21,0,0,1,563.47,223Z" style="fill:#455a64"></path><path d="M563.47,235a2.17,2.17,0,1,1-2.17-2.25A2.21,2.21,0,0,1,563.47,235Z" style="fill:#455a64"></path><path d="M563.47,247a2.17,2.17,0,1,1-2.17-2.25A2.21,2.21,0,0,1,563.47,247Z" style="fill:#455a64"></path><path d="M563.47,259a2.17,2.17,0,1,1-2.17-2.25A2.2,2.2,0,0,1,563.47,259Z" style="fill:#455a64"></path><path d="M563.47,271a2.17,2.17,0,1,1-2.17-2.25A2.2,2.2,0,0,1,563.47,271Z" style="fill:#455a64"></path><path d="M563.47,283a2.17,2.17,0,1,1-2.17-2.25A2.2,2.2,0,0,1,563.47,283Z" style="fill:#455a64"></path><path d="M563.47,295a2.17,2.17,0,1,1-2.17-2.25A2.2,2.2,0,0,1,563.47,295Z" style="fill:#455a64"></path><path d="M563.47,307a2.17,2.17,0,1,1-2.17-2.24A2.21,2.21,0,0,1,563.47,307Z" style="fill:#455a64"></path><path d="M563.47,319a2.17,2.17,0,1,1-2.17-2.24A2.21,2.21,0,0,1,563.47,319Z" style="fill:#455a64"></path><path d="M563.47,331a2.17,2.17,0,1,1-2.17-2.24A2.21,2.21,0,0,1,563.47,331Z" style="fill:#455a64"></path><path d="M599.53,347.34H579.16a2.17,2.17,0,0,1-2.11-2.21h0a2.17,2.17,0,0,1,2.11-2.21h20.37a2.16,2.16,0,0,1,2.1,2.21h0A2.16,2.16,0,0,1,599.53,347.34Z" style="fill:#FF7900"></path><rect x="586.2" y="352.87" width="16.86" height="4.42" rx="2.15" style="fill:#FF7900"></rect><path d="M593.4,376.67H580.74a2.16,2.16,0,0,1-2.1-2.21h0a2.16,2.16,0,0,1,2.1-2.21H593.4a2.16,2.16,0,0,1,2.1,2.21h0A2.16,2.16,0,0,1,593.4,376.67Z" style="fill:#FF7900"></path><path d="M593.4,401.85H580.74a2.16,2.16,0,0,1-2.1-2.21h0a2.16,2.16,0,0,1,2.1-2.21H593.4a2.16,2.16,0,0,1,2.1,2.21h0A2.16,2.16,0,0,1,593.4,401.85Z" style="fill:#FF7900"></path><path d="M624.52,401.85h-22.2a2.16,2.16,0,0,1-2.1-2.21h0a2.16,2.16,0,0,1,2.1-2.21h22.2a2.16,2.16,0,0,1,2.1,2.21h0A2.16,2.16,0,0,1,624.52,401.85Z" style="fill:#455a64"></path><path d="M652.66,377.15H630.47a2.16,2.16,0,0,1-2.1-2.21h0a2.16,2.16,0,0,1,2.1-2.21h22.19a2.16,2.16,0,0,1,2.11,2.21h0A2.16,2.16,0,0,1,652.66,377.15Z" style="fill:#455a64"></path><path d="M626,386.56H603.81a2.16,2.16,0,0,1-2.11-2.21h0a2.16,2.16,0,0,1,2.11-2.21H626a2.16,2.16,0,0,1,2.1,2.21h0A2.16,2.16,0,0,1,626,386.56Z" style="fill:#455a64"></path><path d="M640.05,401.85h-3.2a2.16,2.16,0,0,1-2.1-2.21h0a2.16,2.16,0,0,1,2.1-2.21h3.2a2.16,2.16,0,0,1,2.1,2.21h0A2.16,2.16,0,0,1,640.05,401.85Z" style="fill:#e0e0e0"></path><path d="M623.19,376.67H604.43a2.16,2.16,0,0,1-2.1-2.21h0a2.16,2.16,0,0,1,2.1-2.21h18.76a2.16,2.16,0,0,1,2.1,2.21h0A2.16,2.16,0,0,1,623.19,376.67Z" style="fill:#e0e0e0"></path><rect x="608.57" y="352.87" width="20.04" height="4.42" rx="2.15" style="fill:#455a64"></rect><rect x="634.19" y="352.87" width="8.14" height="4.42" rx="2.15" style="fill:#e0e0e0"></rect><path d="M613.33,347.34h-4.54a2.16,2.16,0,0,1-2.1-2.21h0a2.16,2.16,0,0,1,2.1-2.21h4.54a2.16,2.16,0,0,1,2.1,2.21h0A2.16,2.16,0,0,1,613.33,347.34Z" style="fill:#263238"></path><path d="M651.79,347.34h-28.9a2.17,2.17,0,0,1-2.11-2.21h0a2.17,2.17,0,0,1,2.11-2.21h28.9a2.16,2.16,0,0,1,2.1,2.21h0A2.16,2.16,0,0,1,651.79,347.34Z" style="fill:#e0e0e0"></path><path d="M563.47,342.67a2.17,2.17,0,1,1-2.17-2.25A2.2,2.2,0,0,1,563.47,342.67Z" style="fill:#455a64"></path><path d="M563.47,354.67a2.17,2.17,0,1,1-2.17-2.25A2.2,2.2,0,0,1,563.47,354.67Z" style="fill:#455a64"></path><path d="M563.47,366.67a2.17,2.17,0,1,1-2.17-2.25A2.2,2.2,0,0,1,563.47,366.67Z" style="fill:#455a64"></path><path d="M563.47,378.67a2.17,2.17,0,1,1-2.17-2.25A2.2,2.2,0,0,1,563.47,378.67Z" style="fill:#455a64"></path><path d="M563.47,390.66a2.17,2.17,0,1,1-2.17-2.24A2.21,2.21,0,0,1,563.47,390.66Z" style="fill:#455a64"></path><path d="M563.47,402.66a2.17,2.17,0,1,1-2.17-2.24A2.21,2.21,0,0,1,563.47,402.66Z" style="fill:#455a64"></path><path d="M563.47,415.47a2.17,2.17,0,1,1-2.17-2.25A2.21,2.21,0,0,1,563.47,415.47Z" style="fill:#455a64"></path><path d="M563.47,428.28A2.17,2.17,0,1,1,561.3,426,2.2,2.2,0,0,1,563.47,428.28Z" style="fill:#455a64"></path><path d="M642.38,141l-22.16,0a5.48,5.48,0,0,0-5.38,5.58v4a5.48,5.48,0,0,1-5.38,5.57l-43.19,0a5.5,5.5,0,0,1-5.38-5.59v-4a5.5,5.5,0,0,0-5.38-5.59H528.32a17.36,17.36,0,0,0-17.44,17.29v24.65H659.8V158.26A17.36,17.36,0,0,0,642.38,141Z" style="fill:#f5f5f5"></path><circle cx="520.8" cy="173.13" r="2.75" style="fill:#e0e0e0"></circle><path d="M532,173.12a2.75,2.75,0,1,1-2.75-2.74A2.75,2.75,0,0,1,532,173.12Z" style="fill:#e0e0e0"></path><path d="M540.51,173.12a2.75,2.75,0,1,1-2.75-2.74A2.75,2.75,0,0,1,540.51,173.12Z" style="fill:#e0e0e0"></path><path d="M586.28,163.57a6.78,6.78,0,0,1,1.75-.76l.36-1.74,2.94,0,.42,1.72a7.09,7.09,0,0,1,1.78.7l1.48-1,2.11,2L596.2,166a7,7,0,0,1,.76,1.76l1.74.36,0,2.93-1.72.42a7.17,7.17,0,0,1-.7,1.78l1,1.48-2,2.11-1.51-.91a7.81,7.81,0,0,1-1.76.76l-.36,1.73-2.93.05-.42-1.72a6.8,6.8,0,0,1-1.78-.7L585,177l-2.12-2,.92-1.52a7.14,7.14,0,0,1-.76-1.75l-1.73-.36-.06-2.94L583,168a7.09,7.09,0,0,1,.7-1.78l-1-1.48,2-2.11,1.52.92Zm1.56,3.9a3.15,3.15,0,1,0,4.45-.07A3.14,3.14,0,0,0,587.84,167.47Z" style="fill:#e0e0e0"></path></g><g id="freepik--Gears--inject-12"><rect x="73.82" y="125.77" width="93.66" height="93.66" rx="9.87" style="fill:#FF7900"></rect><path d="M103.57,160.83a21.59,21.59,0,0,1,5.25-2.28l1.08-5.19,8.77-.16,1.26,5.16a21.63,21.63,0,0,1,5.33,2.09l4.43-2.91,6.32,6.1-2.75,4.53a21.76,21.76,0,0,1,2.28,5.25l5.19,1.08.15,8.78-5.15,1.26a21.41,21.41,0,0,1-2.09,5.32l2.9,4.44-6.09,6.31-4.53-2.75a21.76,21.76,0,0,1-5.25,2.28l-1.08,5.2-8.78.15-1.26-5.15a21.44,21.44,0,0,1-5.32-2.1l-4.44,2.91-6.31-6.1,2.75-4.53A20.85,20.85,0,0,1,94,185.27l-5.2-1.08-.15-8.77,5.15-1.27a21.21,21.21,0,0,1,2.1-5.32l-2.91-4.43L99,158.08l4.54,2.75Zm4.68,11.69a9.41,9.41,0,1,0,13.31-.23A9.41,9.41,0,0,0,108.25,172.52Z" style="fill:#fff"></path><path d="M136.22,144.28a8.65,8.65,0,0,1,1.7-1.45l-.19-2.06,3.26-1.06,1.06,1.78a8.32,8.32,0,0,1,2.22.17l1.33-1.59,3.05,1.56-.51,2a8.33,8.33,0,0,1,1.45,1.7l2.06-.19,1.06,3.26-1.78,1.06a8.4,8.4,0,0,1-.17,2.23l1.59,1.32-1.56,3.05-2-.51a8.33,8.33,0,0,1-1.7,1.45l.19,2.06L144,160.12,143,158.34a8.32,8.32,0,0,1-2.22-.17l-1.33,1.59-3-1.55.51-2a8.37,8.37,0,0,1-1.45-1.7l-2.06.19-1.06-3.26,1.78-1.06a8.35,8.35,0,0,1,.17-2.22l-1.59-1.33,1.56-3,2,.51Zm3.08,3.83a3.68,3.68,0,1,0,4.94-1.61A3.67,3.67,0,0,0,139.3,148.11Z" style="fill:#fff"></path></g><g id="freepik--Arrow--inject-12"><polygon points="555.68 95.8 580.68 129.81 607.61 95.75 555.68 95.8" style="fill:#FF7900"></polygon><path d="M594.47,101.55H568.81V64.88c0-7.64-2.73-10.21-3.63-11-3.85-3.62-11.15-4.55-16.7-4.21-.32,0-.74,0-1.26,0h-.06c-9,0-15.26,2.42-18.5,7.19A17.14,17.14,0,0,0,525.93,65v-.21l-25.66.2A41.87,41.87,0,0,1,512.08,36.8c8.44-8.47,20.2-12.78,35-12.8,6.88-.41,23.79-.08,35.71,11.13,5.35,5,11.71,14.26,11.71,29.75Z" style="fill:#FF7900"></path></g></svg>
