<svg xmlns="http://www.w3.org/2000/svg" viewBox="0 0 500 500"><g id="freepik--background-complete--inject-20"><path d="M407.5,145.08,388.14,145a4.81,4.81,0,0,0-4.73,4.89v3.51a4.81,4.81,0,0,1-4.72,4.9l-37.75-.18a4.81,4.81,0,0,1-4.68-4.93v-3.52a4.82,4.82,0,0,0-4.68-4.94l-6.81,0-16.95-.07a15.24,15.24,0,0,0-15.31,15.17l-1,244.41a15.23,15.23,0,0,0,15.17,15.3l99.68.46a15.24,15.24,0,0,0,15.31-15.17l1-244.41A15.23,15.23,0,0,0,407.5,145.08Z" style="fill:#f5f5f5"></path><path d="M394.09,387.36,320,387c-.76,0-1.38-.84-1.38-1.87l.08-19.39c0-1,.63-1.86,1.4-1.85l74.12.34c.77,0,1.39.84,1.39,1.86l-.09,19.4C395.48,386.53,394.85,387.36,394.09,387.36Z" style="fill:#e0e0e0"></path><path d="M340.46,377.28l.23-.47a2.72,2.72,0,0,0,1.83.71c1,0,1.49-.45,1.5-1,0-1.6-3.42-.63-3.41-2.78,0-.86.64-1.59,2.05-1.59a3.12,3.12,0,0,1,1.72.52l-.2.49a2.78,2.78,0,0,0-1.52-.48c-1,0-1.47.46-1.47,1,0,1.6,3.41.65,3.4,2.77,0,.85-.65,1.58-2.07,1.57A2.9,2.9,0,0,1,340.46,377.28Z" style="fill:#fafafa"></path><path d="M345.89,372.2h.59l0,5.81h-.59Z" style="fill:#fafafa"></path><path d="M352.93,372.23l0,5.81h-.49l-3.55-4.73,0,4.71h-.58l0-5.81h.48l3.56,4.73,0-4.71Z" style="fill:#fafafa"></path><path d="M358.64,375.16h.57v2.22a3,3,0,0,1-2,.73,3,3,0,0,1,0-5.91,2.66,2.66,0,0,1,2.06.85l-.37.39a2.18,2.18,0,0,0-1.67-.69,2.41,2.41,0,0,0,0,4.81,2.37,2.37,0,0,0,1.46-.44Z" style="fill:#fafafa"></path><path d="M362.9,375.6v-3.32h.59v3.3c0,1.38.61,2,1.69,2s1.7-.63,1.71-2v-3.31h.58l0,3.33c0,1.66-.87,2.52-2.29,2.52S362.89,377.27,362.9,375.6Z" style="fill:#fafafa"></path><path d="M373.59,374.32c0,1.23-.87,2-2.28,2h-1.49v1.84h-.59l0-5.81h2.08C372.74,372.32,373.59,373.07,373.59,374.32Zm-.59,0c0-.93-.58-1.46-1.69-1.46h-1.48v2.9h1.48C372.41,375.76,373,375.23,373,374.31Z" style="fill:#fafafa"></path><rect x="309" y="216.85" width="25.72" height="4.72" transform="translate(1.02 -1.48) rotate(0.26)" style="fill:#e0e0e0"></rect><path d="M410.15,245.86a2.4,2.4,0,0,0,.58-.14,1.55,1.55,0,0,0,1-1.34c0-1.6,0-3.92,0-6.89v-6.38a1.94,1.94,0,0,0-.28-1.31,1.46,1.46,0,0,0-1.18-.61h-1.57l-14.44,0-83.65-.31a1.36,1.36,0,0,0-1.1.56,2,2,0,0,0-.26,1.3c0,1,0,2,0,3q0,3,0,6c0,1,0,2,0,3a9.1,9.1,0,0,0,0,1.41,1.38,1.38,0,0,0,.78.9,1.55,1.55,0,0,0,.62.1h2.19l2.9,0,22.21.12,37.6.23,25.35.2,6.89.08,1.8,0,.61,0s-.21,0-.61,0l-1.8,0-6.89,0-25.35,0-37.6-.11-22.21-.09H310.6a2.2,2.2,0,0,1-.82-.15,1.89,1.89,0,0,1-1.08-1.24,2.85,2.85,0,0,1-.06-.8v-.74c0-1,0-2,0-3,0-2,0-4,0-6,0-1,0-2,0-3a7.59,7.59,0,0,1,0-.8,1.86,1.86,0,0,1,.33-.81,1.88,1.88,0,0,1,1.53-.77l83.64.46,14.44.11h1.57a1.77,1.77,0,0,1,1.4.73,2.18,2.18,0,0,1,.32,1.47c0,.48,0,.94,0,1.4,0,1.82,0,3.48-.05,5,0,3-.06,5.3-.08,6.9a1.63,1.63,0,0,1-1.06,1.38A1.16,1.16,0,0,1,410.15,245.86Z" style="fill:#e0e0e0"></path><rect x="315.9" y="235.04" width="47.04" height="4.41" transform="translate(1.1 -1.57) rotate(0.26)" style="fill:#e0e0e0"></rect><rect x="308.82" y="259.91" width="25.72" height="4.72" transform="translate(1.21 -1.48) rotate(0.26)" style="fill:#e0e0e0"></rect><path d="M409.49,288.92a4.87,4.87,0,0,0,.59-.11,2.1,2.1,0,0,0,1.27-1.13,2.69,2.69,0,0,0,.17-1.27c0-.49,0-1,0-1.59V274.5a2.16,2.16,0,0,0-.3-1.32,2,2,0,0,0-1.08-.84,6.17,6.17,0,0,0-1.51-.09l-14.4,0-83.35-.3a1.82,1.82,0,0,0-1.82,1.6c0,1,0,2,0,3,0,2,0,4,0,6,0,1,0,2,0,3a6.85,6.85,0,0,0,.06,1.39,1.88,1.88,0,0,0,.73,1,2,2,0,0,0,1.25.32h4.34l22.13.12,37.47.23,25.27.2,6.86.08,1.79,0,.61,0s-.21,0-.61,0l-1.79,0-6.87,0L375,289l-37.47-.12-22.13-.09H311a2.46,2.46,0,0,1-1.53-.41,2.33,2.33,0,0,1-.93-1.31,6.81,6.81,0,0,1-.09-1.53c0-1,0-2,0-3q0-3,0-6c0-1,0-2,0-3.06a2.36,2.36,0,0,1,2.34-2.07l83.35.47,14.4.1a6.15,6.15,0,0,1,1.59.11,2.21,2.21,0,0,1,1.23,1,2.41,2.41,0,0,1,.32,1.46c0,.47,0,.94,0,1.39,0,1.82,0,3.47,0,5s0,2.81,0,4c0,.57,0,1.1,0,1.59a2.74,2.74,0,0,1-.21,1.31,2.13,2.13,0,0,1-1.34,1.14A1.58,1.58,0,0,1,409.49,288.92Z" style="fill:#e0e0e0"></path><rect x="308.63" y="304.82" width="25.72" height="4.72" transform="translate(1.42 -1.47) rotate(0.26)" style="fill:#e0e0e0"></rect><path d="M409.3,333.83a2.38,2.38,0,0,0,.59-.11,2.1,2.1,0,0,0,1.27-1.13,2.67,2.67,0,0,0,.17-1.27c0-.48,0-1,0-1.59V319.41a2.17,2.17,0,0,0-.3-1.32,2,2,0,0,0-1.08-.84,6.19,6.19,0,0,0-1.51-.08l-14.4,0-83.35-.31a1.83,1.83,0,0,0-1.82,1.61c0,.95,0,2,0,3q0,3,0,6c0,1,0,2,0,3a7,7,0,0,0,.06,1.4,1.89,1.89,0,0,0,.73,1,2,2,0,0,0,1.25.32h4.34l22.13.12,37.47.23,25.26.2,6.87.08,1.79,0,.61,0-.61,0-1.79,0H400l-25.26,0-37.47-.12-22.13-.09h-4.35a2.58,2.58,0,0,1-1.53-.41,2.36,2.36,0,0,1-.93-1.32,6.78,6.78,0,0,1-.09-1.53c0-1,0-2,0-3,0-2,0-4,0-6,0-1,0-2,0-3.05a2.35,2.35,0,0,1,2.34-2.07l83.35.46,14.4.1A6.62,6.62,0,0,1,410,317a2.3,2.3,0,0,1,1.23,1,2.42,2.42,0,0,1,.32,1.47c0,.47,0,.93,0,1.39,0,1.81,0,3.47,0,5s0,2.81,0,4c0,.58,0,1.11,0,1.59a2.74,2.74,0,0,1-.21,1.31,2.07,2.07,0,0,1-1.34,1.14A1.58,1.58,0,0,1,409.3,333.83Z" style="fill:#e0e0e0"></path><rect x="315.72" y="278.11" width="47.04" height="4.41" transform="translate(1.3 -1.56) rotate(0.26)" style="fill:#e0e0e0"></rect><path d="M320,325.67a2.06,2.06,0,1,1-2-2.2A2.12,2.12,0,0,1,320,325.67Z" style="fill:#e0e0e0"></path><path d="M326.38,325.7a2.06,2.06,0,1,1-2.05-2.2A2.13,2.13,0,0,1,326.38,325.7Z" style="fill:#e0e0e0"></path><path d="M332.75,325.73a2.06,2.06,0,1,1-2.05-2.2A2.12,2.12,0,0,1,332.75,325.73Z" style="fill:#e0e0e0"></path><path d="M339.12,325.76a2.06,2.06,0,1,1-2-2.2A2.12,2.12,0,0,1,339.12,325.76Z" style="fill:#e0e0e0"></path><path d="M345.5,325.79a2.06,2.06,0,1,1-2.05-2.2A2.13,2.13,0,0,1,345.5,325.79Z" style="fill:#e0e0e0"></path><path d="M351.87,325.82a2.06,2.06,0,1,1-2.05-2.21A2.13,2.13,0,0,1,351.87,325.82Z" style="fill:#e0e0e0"></path><path d="M358.24,325.85a2.06,2.06,0,1,1-2.05-2.21A2.12,2.12,0,0,1,358.24,325.85Z" style="fill:#e0e0e0"></path><path d="M364.61,325.88a2.06,2.06,0,1,1-4.11,0,2.06,2.06,0,1,1,4.11,0Z" style="fill:#e0e0e0"></path><path d="M371,325.91a2.06,2.06,0,1,1-2.05-2.21A2.13,2.13,0,0,1,371,325.91Z" style="fill:#e0e0e0"></path><path d="M361.94,181.54a3.88,3.88,0,0,0,2.31-3.59,3.65,3.65,0,1,0-7.28,0,3.89,3.89,0,0,0,2.32,3.62c-5.6.84-5.34,6.93-5.34,6.93l13.23.06S367.48,182.38,361.94,181.54Z" style="fill:#e0e0e0"></path><rect x="336.24" y="192.4" width="47.19" height="5.64" transform="translate(0.9 -1.66) rotate(0.26)" style="fill:#e0e0e0"></rect><path d="M174.9,91.33a36.29,36.29,0,0,1,6.9,6.77l8.81-1.61,5.82,13.63-7.26,5.25a36.37,36.37,0,0,1,.11,9.67l7.37,5.09-5.53,13.76-8.84-1.42a36.59,36.59,0,0,1-6.77,6.9l1.61,8.81L163.49,164l-5.25-7.26a36.37,36.37,0,0,1-9.67.11l-5.09,7.37-13.76-5.53,1.42-8.84a36.29,36.29,0,0,1-6.9-6.77l-8.82,1.61-5.81-13.63,7.26-5.25a36.37,36.37,0,0,1-.11-9.67l-7.37-5.09,5.53-13.76,8.84,1.42a36.29,36.29,0,0,1,6.77-6.9L128.92,83l13.63-5.81,5.25,7.26a36.37,36.37,0,0,1,9.67-.11L162.56,77l13.75,5.53-1.41,8.84Zm-15.33,14.75a15.91,15.91,0,1,0,8.83,20.69A15.9,15.9,0,0,0,159.57,106.08Z" style="fill:#e0e0e0;fill-rule:evenodd"></path><path d="M201.29,137.46l-19.79-.09a4.91,4.91,0,0,0-4.83,5v3.58a4.91,4.91,0,0,1-4.83,5l-38.58-.18a4.92,4.92,0,0,1-4.79-5l0-3.58a4.91,4.91,0,0,0-4.78-5l-7,0L99.41,137a15.55,15.55,0,0,0-15.64,15.47L82.71,401.57a15.55,15.55,0,0,0,15.5,15.59l101.88.47a15.55,15.55,0,0,0,15.65-15.46l1-249.11A15.55,15.55,0,0,0,201.29,137.46Z" style="fill:#fafafa"></path><rect x="98.82" y="306.96" width="100.81" height="6.74" style="fill:#e0e0e0"></rect><path d="M196,333.52c0,.24-21.52.44-48.05.44s-48.06-.2-48.06-.44,21.51-.45,48.06-.45S196,333.27,196,333.52Z" style="fill:#e0e0e0"></path><path d="M196,173.56c0,.24-21.52.44-48.05.44s-48.06-.2-48.06-.44,21.51-.44,48.06-.44S196,173.31,196,173.56Z" style="fill:#e0e0e0"></path><path d="M196,345.79c0,.25-21.52.44-48.05.44s-48.06-.19-48.06-.44,21.51-.44,48.06-.44S196,345.55,196,345.79Z" style="fill:#e0e0e0"></path><path d="M196,358.07c0,.24-21.52.44-48.05.44s-48.06-.2-48.06-.44,21.51-.44,48.06-.44S196,357.82,196,358.07Z" style="fill:#e0e0e0"></path><path d="M196,370.34c0,.25-21.52.44-48.05.44s-48.06-.19-48.06-.44,21.51-.44,48.06-.44S196,370.1,196,370.34Z" style="fill:#e0e0e0"></path><path d="M196,382.62c0,.24-21.52.44-48.05.44s-48.06-.2-48.06-.44,21.51-.44,48.06-.44S196,382.37,196,382.62Z" style="fill:#e0e0e0"></path><path d="M197.4,396.54c0,.24-21.51.44-48.05.44s-48.06-.2-48.06-.44,21.51-.44,48.06-.44S197.4,396.29,197.4,396.54Z" style="fill:#e0e0e0"></path><rect x="99.92" y="187.56" width="101.06" height="97.78" style="fill:#ebebeb"></rect><polygon points="107.75 276.97 135.71 226.65 158.58 258.81 172.47 241.73 193.14 276.97 107.75 276.97" style="fill:#e0e0e0"></polygon><path d="M168.32,216.86a7.28,7.28,0,1,1-7.28-7.27A7.28,7.28,0,0,1,168.32,216.86Z" style="fill:#e0e0e0"></path><path d="M193.14,277.24s0-.14,0-.4,0-.67,0-1.14c0-1,0-2.51,0-4.4,0-3.88-.06-9.49-.11-16.61-.05-14.28-.12-34.62-.21-59l.41.42-85.38.06c-.12.11.9-.9.47-.46v22c0,7.18,0,14.22,0,21.07,0,13.69,0,26.64,0,38.55l-.42-.42,61.74.21,17.42.11,4.62.05,1.19,0,.42,0a2.21,2.21,0,0,1-.37,0l-1.15,0-4.54,0-17.32.11-62,.22h-.42v-.42c0-11.91,0-24.86,0-38.55,0-6.85,0-13.89,0-21.07v-22c-.43.42.58-.61.49-.5l85.38.07h.42v.41c-.09,24.53-.16,45-.21,59.3,0,7.08-.09,12.66-.11,16.52,0,1.85,0,3.3-.05,4.32,0,.45,0,.81,0,1.09A1.44,1.44,0,0,1,193.14,277.24Z" style="fill:#e0e0e0"></path><rect x="305.69" y="60.11" width="118.15" height="30.86" rx="3.93" style="fill:#e0e0e0"></rect><path d="M324.51,76.46a3.86,3.86,0,0,0,2.31-3.58,3.64,3.64,0,1,0-7.27,0,3.85,3.85,0,0,0,2.31,3.62,5.83,5.83,0,0,0-4.92,4.24A8.3,8.3,0,0,0,322,83.42h2.24a8.26,8.26,0,0,0,5.12-2.75A5.73,5.73,0,0,0,324.51,76.46Z" style="fill:#fafafa"></path><rect x="339.1" y="68.13" width="29.09" height="2.18" style="fill:#fafafa"></rect><rect x="339.1" y="80.46" width="50.96" height="2.18" style="fill:#fafafa"></rect><rect x="339.1" y="74.14" width="73.85" height="2.18" style="fill:#fafafa"></rect></g><g id="freepik--Device--inject-20"><path d="M305.42,428.21l-110.92-.07A24.16,24.16,0,0,1,170.35,404l.05-278.09a24.16,24.16,0,0,1,24.18-24.16l110.93.06A24.16,24.16,0,0,1,329.65,126l0,278.1A24.17,24.17,0,0,1,305.42,428.21Z" style="fill:#263238"></path><path d="M305.39,111.62H283.88a5.34,5.34,0,0,0-5.22,5.45V121a5.34,5.34,0,0,1-5.23,5.46l-41.92,0a5.36,5.36,0,0,1-5.22-5.47V117a5.35,5.35,0,0,0-5.22-5.46h-7.56l-18.83,0a16.93,16.93,0,0,0-16.93,16.92l-.05,271.45a16.91,16.91,0,0,0,16.91,16.92l110.7.07A16.94,16.94,0,0,0,322.25,400l.05-271.44A16.93,16.93,0,0,0,305.39,111.62Z" style="fill:#fff"></path><path d="M217,177.76a6.47,6.47,0,0,1,.69.49l1.93,1.49.08.06-.07.08-3.89,4.55v-.21l9,9h-.32l3.84-4.21.12-.14.16.08a16.94,16.94,0,0,1,3.54,2.31,7.53,7.53,0,0,1,2.52,3.64,4.19,4.19,0,0,1,.11,1.17l0,.59-.18.57a3.66,3.66,0,0,1-.5,1.08,4.87,4.87,0,0,1-.67,1,7.11,7.11,0,0,1-4,2.46,7.67,7.67,0,0,1-4.69-.51,8.27,8.27,0,0,1-2-1.21c-.6-.5-1.1-1-1.63-1.55l-6.06-6c-1.93-1.91-3.76-3.72-5.47-5.43l-1.26-1.25a7.94,7.94,0,0,1-1.16-1.3,4.25,4.25,0,0,1-.75-3.2,6.25,6.25,0,0,1,3.34-4.36,6.72,6.72,0,0,1,4.14-.64,6.63,6.63,0,0,1,2.48.94,5.53,5.53,0,0,1,.56.41c.12.09.18.15.17.15a8,8,0,0,0-3.24-1.3,6.57,6.57,0,0,0-4,.7,5.91,5.91,0,0,0-3.1,4.16,3.89,3.89,0,0,0,.71,2.91,8.54,8.54,0,0,0,1.12,1.24l1.27,1.24,5.51,5.39,6.07,6c.53.51,1,1.07,1.61,1.52a8.28,8.28,0,0,0,1.87,1.14,7.21,7.21,0,0,0,4.38.47,6.62,6.62,0,0,0,3.73-2.28,4.56,4.56,0,0,0,.63-.9,3.41,3.41,0,0,0,.45-1l.16-.5,0-.52a3.56,3.56,0,0,0-.09-1,7,7,0,0,0-2.35-3.38,16.09,16.09,0,0,0-3.41-2.25l.28-.06-3.87,4.2-.16.17-.16-.17-8.95-9.06-.11-.1.1-.11,4-4.48v.14l-1.87-1.56A5.08,5.08,0,0,1,217,177.76Z" style="fill:#263238"></path><path d="M237.13,210.22a8.22,8.22,0,0,0,1.62-.32,5.37,5.37,0,0,0,3.27-3.15,5.15,5.15,0,0,0,.34-1.56c0-.55,0-1.17,0-1.79,0-1.26,0-2.63-.06-4.09,0-2.94-.08-6.29-.12-10s-.08-7.74-.13-12.09c0-1.08,0-2.19,0-3.31a9.07,9.07,0,0,0-.35-3.3,5.16,5.16,0,0,0-2.11-2.55,5.5,5.5,0,0,0-3.33-.78l-31.79.29a5.12,5.12,0,0,0-5.1,5q0,4.13,0,8.11c0,5.31.08,10.44.12,15.33,0,2.44,0,4.83,0,7.14a13,13,0,0,0,.23,3.34,5.18,5.18,0,0,0,1.75,2.59,5.25,5.25,0,0,0,2.82,1.11c1,0,2.07,0,3.07,0l5.8,0,17.5-.06h4.76l1.24,0a1.91,1.91,0,0,1,.42,0,2.24,2.24,0,0,1-.42,0l-1.24,0-4.75.09-17.51.23-5.8.07c-1,0-2,0-3.1,0a5.65,5.65,0,0,1-3.06-1.19,5.74,5.74,0,0,1-1.91-2.8,6.41,6.41,0,0,1-.24-1.74c0-.57,0-1.15,0-1.72q0-3.48-.07-7.15c-.05-4.88-.1-10-.15-15.33q0-4-.06-8.12a5.6,5.6,0,0,1,1.65-3.9,5.69,5.69,0,0,1,4-1.67l31.79-.24a6,6,0,0,1,3.59.86,5.61,5.61,0,0,1,2.28,2.79,5.31,5.31,0,0,1,.36,1.75c0,.59,0,1.14,0,1.71,0,1.12,0,2.22,0,3.31,0,4.34.05,8.39.07,12.09s0,7,0,10c0,1.47,0,2.84,0,4.1,0,.63,0,1.22,0,1.81a5.91,5.91,0,0,1-.38,1.62,5.47,5.47,0,0,1-3.43,3.17A4.5,4.5,0,0,1,237.13,210.22Z" style="fill:#263238"></path><rect x="256.77" y="166.71" width="43.16" height="43.16" rx="5.4" transform="translate(-1.55 2.31) rotate(-0.47)" style="fill:#FF7900"></rect><path d="M293.1,188.24a24.8,24.8,0,0,0-.58-3.5,14.39,14.39,0,0,0-5.33-7.78,14.17,14.17,0,0,0-6-2.59,14.42,14.42,0,0,0-7.46.7,14.16,14.16,0,0,0-6.54,5,14.14,14.14,0,0,0,.14,16.76,14.16,14.16,0,0,0,6.62,4.89,14.29,14.29,0,0,0,7.47.58,14.12,14.12,0,0,0,6-2.69,14.44,14.44,0,0,0,5.2-7.87,25.21,25.21,0,0,0,.52-3.5.82.82,0,0,1,0,.23v.69a7,7,0,0,1-.08,1.12,8.87,8.87,0,0,1-.26,1.51,13.44,13.44,0,0,1-1.53,3.91,14.56,14.56,0,0,1-17.46,6.48,13.9,13.9,0,0,1-3.73-2,13.73,13.73,0,0,1-3.14-3.09,14.6,14.6,0,0,1-.14-17.36,14.66,14.66,0,0,1,6.79-5.15,14.65,14.65,0,0,1,7.69-.67,14.6,14.6,0,0,1,9.87,6.86,13.42,13.42,0,0,1,1.59,3.88,9.2,9.2,0,0,1,.29,1.51,8.7,8.7,0,0,1,.1,1.11c0,.28,0,.51,0,.69A.87.87,0,0,1,293.1,188.24Z" style="fill:#fff"></path><path d="M293.18,187.26c0,.14-6.57.31-14.68.38s-14.67,0-14.67-.14,6.56-.31,14.67-.38S293.17,187.12,293.18,187.26Z" style="fill:#fff"></path><path d="M279.31,202.7a2.46,2.46,0,0,1,.26-.59l.82-1.65a23.85,23.85,0,0,0,1.24-2.63,30.5,30.5,0,0,0,1.34-3.61,22.91,22.91,0,0,0,1.13-9.85,17,17,0,0,0-1.78-5.58,13.77,13.77,0,0,0-4.11-4.7l.3,0c-.22.18-.47.4-.7.62a21.38,21.38,0,0,0-6.44,10.61,14.64,14.64,0,0,0,1.36,10c.3.66.7,1.24,1,1.82s.72,1.06,1.08,1.52l1,1.27c.33.37.64.7.93,1,.55.62,1,1,1.34,1.35a3.23,3.23,0,0,1,.45.5,3.83,3.83,0,0,1-.53-.42c-.32-.29-.83-.69-1.41-1.29l-1-1-1.07-1.26c-.38-.45-.73-1-1.13-1.52s-.76-1.16-1.08-1.84a14.87,14.87,0,0,1-1.5-10.22,21.57,21.57,0,0,1,6.55-10.89c.25-.23.49-.45.74-.65l.15-.12.15.1a14.34,14.34,0,0,1,4.27,4.91,17.21,17.21,0,0,1,1.81,5.76,22.66,22.66,0,0,1-1.26,10,27.94,27.94,0,0,1-1.42,3.62,23.18,23.18,0,0,1-1.32,2.61c-.38.65-.68,1.19-.91,1.6A4.17,4.17,0,0,1,279.31,202.7Z" style="fill:#fff"></path><path d="M238,383.23a7.63,7.63,0,0,0,1.62-.31,5.43,5.43,0,0,0,3.27-3.15,5.15,5.15,0,0,0,.34-1.56c0-.56,0-1.17,0-1.8,0-1.26,0-2.62-.05-4.09,0-2.94-.08-6.28-.12-10s-.09-7.75-.13-12.09c0-1.09,0-2.19,0-3.31a9.07,9.07,0,0,0-.35-3.3,5.18,5.18,0,0,0-2.11-2.56,5.5,5.5,0,0,0-3.33-.77l-31.79.28a5.17,5.17,0,0,0-3.6,1.51,5.07,5.07,0,0,0-1.5,3.55c0,2.74,0,5.44.05,8.1,0,5.32.08,10.45.11,15.34q0,3.66.05,7.14a12.9,12.9,0,0,0,.23,3.33,5.16,5.16,0,0,0,4.57,3.7c1,0,2.07,0,3.07,0l5.8,0,17.5-.06h4.76l1.24,0,.42,0-.42,0-1.24,0-4.75.09-17.51.23-5.8.06c-1,0-2,.05-3.1,0a5.71,5.71,0,0,1-3.06-1.18,5.63,5.63,0,0,1-1.91-2.81A6,6,0,0,1,200,378c0-.57,0-1.14,0-1.72q0-3.48-.07-7.14c0-4.89-.09-10-.14-15.33,0-2.67,0-5.37-.06-8.12a5.65,5.65,0,0,1,5.61-5.57l31.79-.24a5.94,5.94,0,0,1,3.59.85,5.59,5.59,0,0,1,2.28,2.8,5.26,5.26,0,0,1,.36,1.75c0,.58,0,1.14,0,1.7,0,1.12,0,2.23,0,3.32,0,4.34,0,8.39.07,12.08s0,7,0,10c0,1.47,0,2.83,0,4.09,0,.63,0,1.22,0,1.81a5.56,5.56,0,0,1-.37,1.62,5.46,5.46,0,0,1-3.43,3.18A4.32,4.32,0,0,1,238,383.23Z" style="fill:#263238"></path><path d="M207.87,351.71a2.56,2.56,0,0,1,.47,0l1.43,0,5.44-.11,19.34-.28h.23v.24c.06,5.76.12,12.22.19,19l-.27.27h-1.86l-1.84,0-3.63,0-7,0L208,371h-.22V356.83c0-1.61,0-2.89,0-3.81,0-.4,0-.73,0-1a1,1,0,0,1,0-.32s0,.13,0,.37,0,.6,0,1c0,.93.05,2.23.09,3.86.05,3.34.13,8.07.22,13.79l-.21-.21,12.39-.14,7-.07,3.62,0,1.85,0h1.86l-.26.26c0-6.81-.09-13.28-.13-19l.24.24-19.18,0-5.5,0h-1.48Z" style="fill:#263238"></path><path d="M221.31,363.77a1.33,1.33,0,0,1,.24-.27l.72-.71,2.69-2.57c2.34-2.22,5.59-5.28,9.43-8.9l.16.41-13.34.13-13.34.09.15-.41,9.58,8.74,2.73,2.53.73.69a1.66,1.66,0,0,1,.25.27s-.34-.26-1-.81l-2.77-2.41-9.84-8.66-.46-.41h.61l13.35-.14,13.34-.09h.61l-.45.41L225,360.49l-2.74,2.45C221.65,363.5,221.31,363.79,221.31,363.77Z" style="fill:#263238"></path><path d="M217.58,360.42a48.15,48.15,0,0,1-4.59,5.34,47.51,47.51,0,0,1-5,5,48.15,48.15,0,0,1,4.59-5.34A46.35,46.35,0,0,1,217.58,360.42Z" style="fill:#263238"></path><path d="M234.7,370.53A98.67,98.67,0,0,1,225,360.36a45.91,45.91,0,0,1,5.05,4.9A46,46,0,0,1,234.7,370.53Z" style="fill:#263238"></path><rect x="200.15" y="282.75" width="43.16" height="43.16" rx="5.4" style="fill:#FF7900"></rect><path d="M234.31,313.62a3.18,3.18,0,0,1,0-.38c0-.27,0-.61,0-1,0-.95-.05-2.26-.09-3.92,0-3.39-.13-8.17-.22-13.93l.21.21-25,.25.25-.26h0v2.56c0,.86,0,1.71,0,2.55,0,1.68,0,3.33,0,4.95,0,3.23,0,6.31.06,9.19l-.24-.23,18,0,5.14,0h1.38l.49,0a2.23,2.23,0,0,1-.44,0l-1.33,0-5.09.1-18.14.27h-.23v-.23c0-2.89-.06-6-.1-9.2,0-1.61,0-3.27,0-4.95l0-2.54v-2.57h0l.26-.27,25-.16h.22v14.28c0,1.64,0,2.94,0,3.88,0,.41,0,.74,0,1A1.12,1.12,0,0,1,234.31,313.62Z" style="fill:#fafafa"></path><path d="M217.51,290.77a13.08,13.08,0,0,1,2.18-.15c1.39-.06,3.37-.1,5.72-.15h.13l.07.12,2.23,3.68.23.38h-.45l-2.36,0c-3.95,0-7.53,0-10.14,0h-.33l.17-.27c1.41-2.35,2.41-3.76,2.55-3.64s-.24.34-.63,1-1,1.71-1.6,2.82l-.16-.28c2.61-.06,6.19-.12,10.13-.15l2.37,0-.22.39-2.19-3.71.2.12c-2.35,0-4.32,0-5.71-.05A13,13,0,0,1,217.51,290.77Z" style="fill:#fafafa"></path><path d="M226.88,305.78s.13-.5.18-1.39a5.76,5.76,0,0,0-1-3.56,5.52,5.52,0,1,0-2.86,8.36,5.7,5.7,0,0,0,3-2.2c.51-.74.66-1.23.71-1.21s0,.13-.09.36a4.27,4.27,0,0,1-.45,1,5.72,5.72,0,0,1-3,2.44,5.95,5.95,0,0,1-7.59-3.82A6,6,0,0,1,218,299a6,6,0,0,1,3.31-1.06,5.89,5.89,0,0,1,5,2.68,5.68,5.68,0,0,1,.9,3.77,4.18,4.18,0,0,1-.23,1C227,305.67,226.9,305.78,226.88,305.78Z" style="fill:#fafafa"></path><rect x="257.41" y="225.01" width="43.16" height="43.16" rx="5.4" transform="translate(-2.03 2.31) rotate(-0.47)" style="fill:#455a64"></rect><path d="M292.77,245.85a25,25,0,0,0-.57-3.47,14.31,14.31,0,0,0-5.29-7.73,14.06,14.06,0,0,0-13.37-1.87,13,13,0,0,0-3.55,1.95,13.39,13.39,0,0,0-2.95,3,14,14,0,0,0,.14,16.64,13.41,13.41,0,0,0,3,3,13.06,13.06,0,0,0,3.57,1.89,14.1,14.1,0,0,0,13.35-2.1,14.36,14.36,0,0,0,5.16-7.81,23.59,23.59,0,0,0,.51-3.48.6.6,0,0,1,0,.23v.69a6.85,6.85,0,0,1-.08,1.11,8.93,8.93,0,0,1-.26,1.5,13.36,13.36,0,0,1-1.51,3.88,14.46,14.46,0,0,1-17.34,6.43,13.5,13.5,0,0,1-3.72-1.94,13.88,13.88,0,0,1-3.11-3.06,14.48,14.48,0,0,1-.14-17.25,13.9,13.9,0,0,1,3.06-3.11,13.62,13.62,0,0,1,3.68-2,14.43,14.43,0,0,1,13.76,2,14.22,14.22,0,0,1,3.68,4.11,13.62,13.62,0,0,1,1.59,3.86,10,10,0,0,1,.28,1.49,7,7,0,0,1,.09,1.11c0,.28,0,.5,0,.69A.6.6,0,0,1,292.77,245.85Z" style="fill:#fff"></path><path d="M275,239.11a6.52,6.52,0,0,1,.81.4l2.39,1.26c2.05,1.09,5,2.66,8.43,4.56l.38.21-.37.22L281,249.05l-5.77,3.33-.37.21v-.42c0-3.88,0-7.2.06-9.5,0-1.07,0-2,0-2.66a5.06,5.06,0,0,1,0-.9s0,.38.05,1,.05,1.64.09,2.74c.07,2.33.16,5.54.21,9.29l-.37-.21,5.76-3.36,5.65-3.27v.43c-3.29-1.86-6.09-3.51-8.12-4.7l-2.38-1.4C275.27,239.32,275,239.13,275,239.11Z" style="fill:#fff"></path><path d="M234.47,268.06c0-.14.67-.26,1.51-.27s1.51.1,1.51.25-.67.26-1.51.27S234.47,268.21,234.47,268.06Z" style="fill:#e0e0e0"></path><path d="M228.42,268.11c0-.14.67-.26,1.51-.27s1.51.1,1.51.25-.67.26-1.51.27S228.42,268.26,228.42,268.11Z" style="fill:#e0e0e0"></path><path d="M222.37,268.16c0-.14.68-.26,1.51-.27s1.51.1,1.52.25-.68.26-1.52.27S222.37,268.31,222.37,268.16Z" style="fill:#e0e0e0"></path><path d="M216.32,268.21c0-.14.68-.26,1.51-.27s1.51.1,1.52.25-.68.26-1.51.27S216.32,268.36,216.32,268.21Z" style="fill:#e0e0e0"></path><path d="M210.27,268.26c0-.14.68-.26,1.51-.27s1.52.1,1.52.25-.68.26-1.51.27S210.27,268.41,210.27,268.26Z" style="fill:#e0e0e0"></path><path d="M204.23,268.24c0-.17.66-.16,1.5-.2s1.52.1,1.52.25-.68.26-1.51.27S204.18,268.36,204.23,268.24Z" style="fill:#e0e0e0"></path><path d="M199.91,264.44c.15,0,.42.57.85,1.24s.86,1.17.76,1.28-.72-.25-1.2-1S199.78,264.47,199.91,264.44Z" style="fill:#e0e0e0"></path><path d="M199.65,258.41c.15,0,.27.68.27,1.51s-.1,1.52-.24,1.52-.27-.68-.28-1.51S199.51,258.42,199.65,258.41Z" style="fill:#e0e0e0"></path><path d="M199.6,252.37c.15,0,.27.67.27,1.51s-.1,1.51-.24,1.51-.27-.68-.28-1.51S199.46,252.37,199.6,252.37Z" style="fill:#e0e0e0"></path><path d="M199.55,246.32c.15,0,.27.67.27,1.51s-.1,1.51-.24,1.51-.27-.67-.28-1.51S199.41,246.32,199.55,246.32Z" style="fill:#e0e0e0"></path><path d="M199.5,240.27c.15,0,.27.67.27,1.51s-.1,1.51-.24,1.51-.27-.67-.28-1.51S199.36,240.27,199.5,240.27Z" style="fill:#e0e0e0"></path><path d="M199.45,234.22c.15,0,.27.67.27,1.51s-.1,1.51-.24,1.51-.27-.67-.28-1.51S199.31,234.22,199.45,234.22Z" style="fill:#e0e0e0"></path><path d="M199.94,228.24c.13.07-.07.7-.19,1.49s-.16,1.47-.32,1.46-.33-.66-.2-1.55S199.81,228.17,199.94,228.24Z" style="fill:#e0e0e0"></path><path d="M204.77,225.15c0,.14-.66.24-1.42.47s-1.36.5-1.44.38.44-.63,1.29-.88S204.78,225,204.77,225.15Z" style="fill:#e0e0e0"></path><path d="M210.82,225.1c0,.14-.68.26-1.51.27s-1.52-.11-1.52-.25.68-.27,1.51-.27S210.82,225,210.82,225.1Z" style="fill:#e0e0e0"></path><path d="M216.87,225.05c0,.14-.68.26-1.51.27s-1.52-.11-1.52-.25.68-.27,1.51-.27S216.87,224.9,216.87,225.05Z" style="fill:#e0e0e0"></path><path d="M222.92,225c0,.14-.68.26-1.51.27s-1.52-.11-1.52-.25.68-.27,1.51-.27S222.91,224.85,222.92,225Z" style="fill:#e0e0e0"></path><path d="M229,225c0,.14-.67.26-1.51.27s-1.51-.11-1.51-.25.67-.27,1.51-.27S229,224.8,229,225Z" style="fill:#e0e0e0"></path><path d="M235,224.9c0,.14-.67.26-1.51.27s-1.51-.11-1.51-.25.67-.27,1.51-.27S235,224.75,235,224.9Z" style="fill:#e0e0e0"></path><path d="M240.74,226.22c-.1.1-.65-.26-1.37-.6s-1.35-.53-1.33-.68.75-.17,1.55.21S240.84,226.12,240.74,226.22Z" style="fill:#e0e0e0"></path><path d="M242.6,231.73c-.15,0-.27-.67-.28-1.51s-.1-1.44,0-1.49.48.6.48,1.49S242.74,231.73,242.6,231.73Z" style="fill:#e0e0e0"></path><path d="M242.65,237.78c-.15,0-.27-.67-.28-1.51s.11-1.51.25-1.51.27.67.27,1.51S242.79,237.78,242.65,237.78Z" style="fill:#e0e0e0"></path><path d="M242.7,243.83c-.15,0-.27-.67-.28-1.51s.11-1.51.25-1.51.27.67.27,1.51S242.84,243.83,242.7,243.83Z" style="fill:#e0e0e0"></path><path d="M242.75,249.88c-.15,0-.27-.67-.28-1.51s.11-1.51.25-1.51.27.67.27,1.51S242.89,249.88,242.75,249.88Z" style="fill:#e0e0e0"></path><path d="M242.8,255.93c-.15,0-.27-.67-.28-1.51s.11-1.51.25-1.51.27.67.27,1.51S242.94,255.93,242.8,255.93Z" style="fill:#e0e0e0"></path><path d="M242.85,262c-.15,0-.27-.68-.28-1.51s.11-1.51.25-1.52.27.68.27,1.51S243,262,242.85,262Z" style="fill:#e0e0e0"></path><path d="M240.37,267.18c-.07-.13.43-.56.95-1.16s.88-1.15,1-1.09,0,.77-.63,1.43S240.44,267.3,240.37,267.18Z" style="fill:#e0e0e0"></path><path d="M291.46,381.2c0-.15.67-.27,1.51-.28s1.51.11,1.51.25-.67.27-1.51.27S291.46,381.34,291.46,381.2Z" style="fill:#e0e0e0"></path><path d="M285.41,381.25c0-.15.67-.27,1.51-.28s1.51.11,1.51.25-.67.27-1.51.27S285.41,381.39,285.41,381.25Z" style="fill:#e0e0e0"></path><path d="M279.36,381.3c0-.15.67-.27,1.51-.28s1.51.11,1.51.25-.67.27-1.51.27S279.36,381.44,279.36,381.3Z" style="fill:#e0e0e0"></path><path d="M273.31,381.35c0-.15.67-.27,1.51-.28s1.51.11,1.51.25-.67.27-1.51.27S273.31,381.49,273.31,381.35Z" style="fill:#e0e0e0"></path><path d="M267.26,381.4c0-.15.68-.27,1.51-.28s1.51.11,1.52.25-.68.27-1.51.27S267.26,381.54,267.26,381.4Z" style="fill:#e0e0e0"></path><path d="M261.21,381.37c.05-.16.67-.16,1.51-.2s1.52.11,1.52.25-.68.27-1.51.27S261.17,381.49,261.21,381.37Z" style="fill:#e0e0e0"></path><path d="M256.9,377.58c.14,0,.42.56.85,1.23s.86,1.17.76,1.28-.72-.25-1.2-1S256.76,377.6,256.9,377.58Z" style="fill:#e0e0e0"></path><path d="M256.64,371.55c.14,0,.27.67.27,1.51s-.1,1.51-.25,1.51-.26-.67-.27-1.51S256.5,371.55,256.64,371.55Z" style="fill:#e0e0e0"></path><path d="M256.59,365.5c.14,0,.27.67.27,1.51s-.1,1.51-.25,1.51-.26-.67-.27-1.51S256.45,365.5,256.59,365.5Z" style="fill:#e0e0e0"></path><path d="M256.54,359.45c.14,0,.27.67.27,1.51s-.1,1.51-.25,1.51-.26-.67-.27-1.51S256.4,359.45,256.54,359.45Z" style="fill:#e0e0e0"></path><path d="M256.49,353.4c.14,0,.27.68.27,1.51s-.1,1.51-.24,1.51-.27-.67-.28-1.51S256.35,353.4,256.49,353.4Z" style="fill:#e0e0e0"></path><path d="M256.44,347.35c.14,0,.27.68.27,1.51s-.1,1.51-.25,1.52-.26-.68-.27-1.51S256.3,347.35,256.44,347.35Z" style="fill:#e0e0e0"></path><path d="M256.92,341.38c.14.06-.06.7-.18,1.48s-.16,1.47-.32,1.47-.33-.67-.2-1.55S256.8,341.31,256.92,341.38Z" style="fill:#e0e0e0"></path><path d="M261.76,338.28c0,.15-.66.24-1.42.47s-1.36.51-1.44.38.44-.63,1.29-.88S261.77,338.14,261.76,338.28Z" style="fill:#e0e0e0"></path><path d="M267.81,338.23c0,.14-.68.26-1.51.27s-1.52-.1-1.52-.25.68-.26,1.51-.27S267.8,338.08,267.81,338.23Z" style="fill:#e0e0e0"></path><path d="M273.86,338.18c0,.14-.68.26-1.51.27s-1.52-.1-1.52-.25.68-.26,1.51-.27S273.85,338,273.86,338.18Z" style="fill:#e0e0e0"></path><path d="M279.9,338.13c0,.14-.67.26-1.51.27s-1.51-.1-1.51-.25.67-.26,1.51-.27S279.9,338,279.9,338.13Z" style="fill:#e0e0e0"></path><path d="M286,338.08c0,.14-.67.26-1.51.27s-1.51-.1-1.51-.25.67-.26,1.51-.27S286,337.93,286,338.08Z" style="fill:#e0e0e0"></path><path d="M292,338c0,.14-.67.26-1.51.27s-1.51-.1-1.51-.25.67-.26,1.51-.27S292,337.88,292,338Z" style="fill:#e0e0e0"></path><path d="M297.73,339.35c-.1.11-.66-.26-1.38-.59s-1.34-.54-1.33-.68.75-.17,1.56.21S297.83,339.25,297.73,339.35Z" style="fill:#e0e0e0"></path><path d="M299.58,344.87c-.14,0-.26-.68-.27-1.51s-.1-1.45,0-1.5.47.6.48,1.49S299.73,344.87,299.58,344.87Z" style="fill:#e0e0e0"></path><path d="M299.63,350.92c-.14,0-.26-.68-.27-1.51s.1-1.52.25-1.52.26.68.27,1.51S299.78,350.91,299.63,350.92Z" style="fill:#e0e0e0"></path><path d="M299.68,357c-.14,0-.26-.67-.27-1.51s.1-1.51.25-1.51.26.68.27,1.51S299.83,357,299.68,357Z" style="fill:#e0e0e0"></path><path d="M299.73,363c-.14,0-.26-.67-.27-1.51s.1-1.51.25-1.51.26.67.27,1.51S299.88,363,299.73,363Z" style="fill:#e0e0e0"></path><path d="M299.78,369.06c-.14,0-.26-.67-.27-1.51s.1-1.51.25-1.51.26.67.27,1.51S299.93,369.06,299.78,369.06Z" style="fill:#e0e0e0"></path><path d="M299.83,375.11c-.14,0-.26-.67-.27-1.51s.1-1.51.25-1.51.26.67.27,1.51S300,375.11,299.83,375.11Z" style="fill:#e0e0e0"></path><path d="M297.36,380.31c-.07-.13.43-.56.95-1.16s.88-1.15,1-1.09,0,.77-.63,1.44S297.43,380.43,297.36,380.31Z" style="fill:#e0e0e0"></path><path d="M291.46,325.87c0-.15.67-.27,1.51-.28s1.51.11,1.51.25-.67.27-1.51.27S291.46,326,291.46,325.87Z" style="fill:#e0e0e0"></path><path d="M285.41,325.92c0-.15.67-.27,1.51-.28s1.51.11,1.51.25-.67.27-1.51.27S285.41,326.06,285.41,325.92Z" style="fill:#e0e0e0"></path><path d="M279.36,326c0-.15.67-.27,1.51-.28s1.51.11,1.51.25-.67.27-1.51.27S279.36,326.11,279.36,326Z" style="fill:#e0e0e0"></path><path d="M273.31,326c0-.15.67-.27,1.51-.28s1.51.11,1.51.25-.67.27-1.51.27S273.31,326.16,273.31,326Z" style="fill:#e0e0e0"></path><path d="M267.26,326.07c0-.15.68-.27,1.51-.28s1.51.11,1.52.25-.68.27-1.51.27S267.26,326.21,267.26,326.07Z" style="fill:#e0e0e0"></path><path d="M261.21,326c.05-.16.67-.16,1.51-.2s1.52.11,1.52.25-.68.27-1.51.27S261.17,326.16,261.21,326Z" style="fill:#e0e0e0"></path><path d="M256.9,322.25c.14,0,.42.56.85,1.23s.86,1.17.76,1.28-.72-.25-1.2-1S256.76,322.27,256.9,322.25Z" style="fill:#e0e0e0"></path><path d="M256.64,316.22c.14,0,.27.67.27,1.51s-.1,1.51-.25,1.51-.26-.67-.27-1.51S256.5,316.22,256.64,316.22Z" style="fill:#e0e0e0"></path><path d="M256.59,310.17c.14,0,.27.67.27,1.51s-.1,1.51-.25,1.51-.26-.67-.27-1.51S256.45,310.17,256.59,310.17Z" style="fill:#e0e0e0"></path><path d="M256.54,304.12c.14,0,.27.67.27,1.51s-.1,1.51-.25,1.51-.26-.67-.27-1.51S256.4,304.12,256.54,304.12Z" style="fill:#e0e0e0"></path><path d="M256.49,298.07c.14,0,.27.68.27,1.51s-.1,1.51-.24,1.51-.27-.67-.28-1.51S256.35,298.07,256.49,298.07Z" style="fill:#e0e0e0"></path><path d="M256.44,292c.14,0,.27.68.27,1.51s-.1,1.51-.25,1.52-.26-.68-.27-1.51S256.3,292,256.44,292Z" style="fill:#e0e0e0"></path><path d="M256.92,286.05c.14.06-.06.7-.18,1.48s-.16,1.47-.32,1.47-.33-.67-.2-1.55S256.8,286,256.92,286.05Z" style="fill:#e0e0e0"></path><path d="M261.76,283c0,.15-.66.24-1.42.47s-1.36.51-1.44.38.44-.63,1.29-.88S261.77,282.81,261.76,283Z" style="fill:#e0e0e0"></path><path d="M267.81,282.9c0,.14-.68.26-1.51.27s-1.52-.1-1.52-.25.68-.26,1.51-.27S267.8,282.75,267.81,282.9Z" style="fill:#e0e0e0"></path><path d="M273.86,282.85c0,.14-.68.26-1.51.27s-1.52-.1-1.52-.25.68-.26,1.51-.27S273.85,282.7,273.86,282.85Z" style="fill:#e0e0e0"></path><path d="M279.9,282.8c0,.14-.67.26-1.51.27s-1.51-.1-1.51-.25.67-.26,1.51-.27S279.9,282.65,279.9,282.8Z" style="fill:#e0e0e0"></path><path d="M286,282.75c0,.14-.67.26-1.51.27s-1.51-.1-1.51-.25.67-.26,1.51-.27S286,282.6,286,282.75Z" style="fill:#e0e0e0"></path><path d="M292,282.7c0,.14-.67.26-1.51.27s-1.51-.1-1.51-.25.67-.26,1.51-.27S292,282.55,292,282.7Z" style="fill:#e0e0e0"></path><path d="M297.73,284c-.1.11-.66-.26-1.38-.59s-1.34-.54-1.33-.68.75-.17,1.56.21S297.83,283.92,297.73,284Z" style="fill:#e0e0e0"></path><path d="M299.58,289.54c-.14,0-.26-.68-.27-1.51s-.1-1.45,0-1.5.47.6.48,1.49S299.73,289.54,299.58,289.54Z" style="fill:#e0e0e0"></path><path d="M299.63,295.59c-.14,0-.26-.68-.27-1.51s.1-1.52.25-1.52.26.68.27,1.51S299.78,295.58,299.63,295.59Z" style="fill:#e0e0e0"></path><path d="M299.68,301.64c-.14,0-.26-.68-.27-1.51s.1-1.52.25-1.52.26.68.27,1.51S299.83,301.63,299.68,301.64Z" style="fill:#e0e0e0"></path><path d="M299.73,307.68c-.14,0-.26-.67-.27-1.51s.1-1.51.25-1.51.26.67.27,1.51S299.88,307.68,299.73,307.68Z" style="fill:#e0e0e0"></path><path d="M299.78,313.73c-.14,0-.26-.67-.27-1.51s.1-1.51.25-1.51.26.67.27,1.51S299.93,313.73,299.78,313.73Z" style="fill:#e0e0e0"></path><path d="M299.83,319.78c-.14,0-.26-.67-.27-1.51s.1-1.51.25-1.51.26.67.27,1.51S300,319.78,299.83,319.78Z" style="fill:#e0e0e0"></path><path d="M297.36,325c-.07-.13.43-.56.95-1.16s.88-1.15,1-1.09,0,.77-.63,1.44S297.43,325.1,297.36,325Z" style="fill:#e0e0e0"></path><circle cx="239.93" cy="167.73" r="8.32" transform="translate(-48.74 119.04) rotate(-25.38)" style="fill:#FF7900"></circle><path d="M243,169.06c0,1.22-.87,2.17-2.63,2.18a3.82,3.82,0,0,1-2.65-.92l.36-.6a3.21,3.21,0,0,0,2.28.83c1.21,0,1.88-.58,1.87-1.49s-.63-1.44-2-1.43h-.52v-.55l2-2.56-3.74,0v-.67l4.71,0v.54l-2,2.62C242.18,167.07,243,167.89,243,169.06Z" style="fill:#fff"></path><path d="M239.72,396.16a2.13,2.13,0,1,1-2.15-2.11A2.12,2.12,0,0,1,239.72,396.16Z" style="fill:#263238"></path><path d="M251.62,396.06a2.13,2.13,0,1,1-2.14-2.1A2.12,2.12,0,0,1,251.62,396.06Z" style="fill:#263238"></path><path d="M263.53,396a2.13,2.13,0,1,1-2.14-2.1A2.13,2.13,0,0,1,263.53,396Z" style="fill:#263238"></path><path d="M306,139c0,.08-2.79.18-6.24.21s-6.25,0-6.25-.11,2.79-.18,6.24-.21S306,138.94,306,139Z" style="fill:#263238"></path><path d="M306.06,142.23c0,.08-2.8.17-6.25.2s-6.24,0-6.25-.1a61.52,61.52,0,0,1,6.25-.21A59.8,59.8,0,0,1,306.06,142.23Z" style="fill:#263238"></path><path d="M306.09,145.42a61.52,61.52,0,0,1-6.25.21c-3.45,0-6.25,0-6.25-.1a61.52,61.52,0,0,1,6.25-.21C303.29,145.29,306.09,145.34,306.09,145.42Z" style="fill:#263238"></path><path d="M192.39,149.07l.26,0,.73,0L196,149,196,149c0-.59,0-1.24,0-1.93,0-.36,0-.7,0-1.12a1.06,1.06,0,0,1,.91-.84c.44,0,.81,0,1.28,0a1.07,1.07,0,0,1,.9,1.05c0,.91,0,1.85,0,2.83l-.15-.15,3.37,0-.15.15c0-1.36,0-2.76,0-4.19,0-.36,0-.72,0-1.07a1,1,0,0,0-.47-.78l-1.47-1.45-1.42-1.4-.68-.68c-.24-.23-.42-.46-.69-.51a.87.87,0,0,0-.75.14c-.2.17-.42.41-.63.61l-1.2,1.22c-.76.79-1.56,1.51-2.13,2.19a2.35,2.35,0,0,0-.17,1.24v1.18c0,.73,0,1.36,0,1.91s0,.88,0,1.23a2.3,2.3,0,0,1,0,.44,3.55,3.55,0,0,1,0-.4c0-.34,0-.73,0-1.2s0-1.2-.05-1.93c0-.38,0-.78,0-1.21a2.62,2.62,0,0,1,.18-1.38c.63-.77,1.37-1.44,2.13-2.25l1.2-1.23c.22-.21.39-.42.65-.65a1.16,1.16,0,0,1,1-.19,1.8,1.8,0,0,1,.82.58l.69.68,1.43,1.39,1.47,1.45a1.37,1.37,0,0,1,.56,1c0,.36,0,.71,0,1.07q0,2.16,0,4.2v.15h-.15l-3.36,0h-.15V149c0-1,0-1.92,0-2.82a.8.8,0,0,0-.67-.8c-.38,0-.84,0-1.21,0a.82.82,0,0,0-.71.64c0,.33,0,.73,0,1.08v2H196l-2.71,0h-.71A.94.94,0,0,1,192.39,149.07Z" style="fill:#263238"></path><rect x="305.06" y="341.37" width="43.16" height="43.16" rx="5.4" transform="matrix(1, -0.01, 0.01, 1, -2.99, 2.71)" style="fill:#455a64"></rect><path d="M316.13,361.1l.45.35,1.21,1,4.43,3.64.06.05v.08c-.21,2.2-.46,4.85-.75,7.82l-.32-.2,6.68-4.14.11-.07.11.06,7.2,3.16-.35.29c-.6-2.46-1.22-5-1.86-7.63,0-.11-.06.23.06-.24h0l0,0,0-.05.09-.1.17-.18.33-.38.67-.74,1.32-1.48,2.59-2.88.17.43-7.83-.62h-.13l-.06-.11-3.92-6.81.37,0-3,7.25,0,.08h-.08l-5.63,1.11-1.53.29a4.17,4.17,0,0,1-.56.1l.48-.12,1.47-.35,5.7-1.33-.11.09,2.95-7.29.15-.39.22.37,4,6.78-.19-.12,7.84.59.51,0-.34.38-2.58,2.89-1.32,1.47-.67.75-.34.37-.16.19-.09.1,0,0,0,0h0c.12-.47,0-.13.06-.23.63,2.61,1.25,5.17,1.84,7.63l.12.51-.47-.21-7.18-3.2h.22l-6.71,4.09-.36.22.05-.42c.32-3,.61-5.62.85-7.81l.06.13-4.4-3.87-1.13-1Z" style="fill:#fafafa"></path></g></svg>